<svg xmlns="http://www.w3.org/2000/svg" xml:space="preserve" width="600px" height="600px" version="1.1" style="shape-rendering:geometricPrecision; text-rendering:geometricPrecision; image-rendering:optimizeQuality; fill-rule:evenodd; clip-rule:evenodd" viewBox="0 0 600 600" xmlns:xlink="http://www.w3.org/1999/xlink">
<defs>
<style type="text/css">
<![CDATA[
.fil4 {fill:#494949}
.fil5 {fill:#5E5E5E}
.fil12 {fill:#615549}
.fil6 {fill:#6E6E6E}
.fil19 {fill:#B8BBB8}
.fil2 {fill:#C2CED3}
.fil16 {fill:#C7CAC6}
.fil1 {fill:#CBD7DE}
.fil18 {fill:#CDCFCC}
.fil13 {fill:#CECECE}
.fil14 {fill:#D5D7D5}
.fil17 {fill:#D8DBD7}
.fil3 {fill:#DFEBED}
.fil9 {fill:#E3877D}
.fil15 {fill:#ECECEC}
.fil10 {fill:#ED8C83}
.fil11 {fill:#EDBEA3}
.fil7 {fill:#F1CBB4}
.fil8 {fill:whitesmoke}
.fil25 {fill:#FAFAFA}
.fil23 {fill:#319467;fill-rule:nonzero}
.fil22 {fill:#31C380;fill-rule:nonzero}
.fil26 {fill:#31C9DC;fill-rule:nonzero}
.fil20 {fill:#F4CA48;fill-rule:nonzero}
.fil24 {fill:#FAFAFA;fill-rule:nonzero}
.fil21 {fill:#FEFEFE;fill-rule:nonzero}
.fil0 {fill:white;fill-rule:nonzero}
]]>
</style>
</defs>
<g id="Layer_x0020_1">
<g id="_2765788749152">
<path class="fil0" d="M222.47 132.18c-117.76,0 -213.21,95.46 -213.21,213.21 0,117.76 95.45,213.22 213.21,213.22 14.77,0 29.19,-1.5 43.11,-4.36 12.67,2.85 25.84,4.36 39.36,4.36 71.63,0 133.41,-42.17 161.87,-103.04 54.4,-21.91 92.8,-75.17 92.8,-137.4 0,-29.41 -8.58,-56.8 -23.36,-79.84 14.33,-12.66 23.36,-31.16 23.36,-51.78 0,-38.17 -30.93,-69.1 -69.1,-69.1 -8.35,0 -16.36,1.48 -23.78,4.2 -13.36,-27.03 -41.22,-45.64 -73.42,-45.64 -43.14,0 -78.47,33.36 -81.64,75.67 -27.14,-12.51 -57.35,-19.5 -89.2,-19.5l0 0zm286.67 328.65c-4.35,0 -7.88,-3.53 -7.88,-7.88 0,-4.36 3.53,-7.89 7.88,-7.89 4.36,0 7.89,3.53 7.89,7.89 0,4.35 -3.53,7.88 -7.89,7.88zm-23.96 33.74c-9.87,0 -17.87,-8 -17.87,-17.87 0,-9.88 8,-17.88 17.87,-17.88 9.88,0 17.88,8 17.88,17.88 0,9.87 -8,17.87 -17.88,17.87zm-25.96 16.61c-5.35,0 -9.69,-4.34 -9.69,-9.69 0,-5.35 4.34,-9.7 9.69,-9.7 5.36,0 9.7,4.35 9.7,9.7 0,5.35 -4.34,9.69 -9.7,9.69zm112.18 -246.19c-10.68,0 -19.35,-8.66 -19.35,-19.35 0,-10.68 8.67,-19.34 19.35,-19.34 10.68,0 19.34,8.66 19.34,19.34 0,10.69 -8.66,19.35 -19.34,19.35zm2.87 32.54c-5.39,0 -9.76,-4.37 -9.76,-9.75 0,-5.39 4.37,-9.75 9.76,-9.75 5.38,0 9.75,4.36 9.75,9.75 0,5.38 -4.37,9.75 -9.75,9.75zm-101.59 -192.15c-7.67,0 -13.9,-6.22 -13.9,-13.9 0,-7.67 6.23,-13.9 13.9,-13.9 7.68,0 13.91,6.23 13.91,13.9 0,7.68 -6.23,13.9 -13.91,13.9zm-27.33 -23.85c-4.14,0 -7.5,-3.36 -7.5,-7.5 0,-4.14 3.36,-7.49 7.5,-7.49 4.14,0 7.5,3.35 7.5,7.49 0,4.14 -3.36,7.5 -7.5,7.5zm-339.3 72.9l0 0c-4.59,-0.18 -8.17,-4.05 -8,-8.64 0.17,-4.6 4.04,-8.18 8.64,-8 4.6,0.18 8.17,4.04 8,8.64 -0.18,4.59 -4.04,8.17 -8.64,8zm31.49 -18.65c-12.79,-0.49 -22.75,-11.25 -22.26,-24.03 0.49,-12.79 11.25,-22.76 24.03,-22.27 12.78,0.49 22.76,11.26 22.26,24.04 -0.49,12.78 -11.25,22.75 -24.03,22.26zm54.63 -12.78l0 0c-8.67,-0.33 -15.45,-7.64 -15.12,-16.32 0.33,-8.69 7.64,-15.45 16.33,-15.12 8.68,0.33 15.45,7.64 15.11,16.32 -0.33,8.69 -7.64,15.45 -16.32,15.12z"/>
<g>
<g>
<g>
<g>
<rect class="fil1" x="217.98" y="396.69" width="8.29" height="75.64"/>
<rect class="fil2" x="213.63" y="357.08" width="16.99" height="43.13" rx="3.47" ry="4.63"/>
<path class="fil2" d="M244.71 505.62l3.33 0c1.14,0 2.24,-1.05 2.81,-2.69 0.57,-1.64 0.43,-3.36 -0.35,-4.41l-24.23 -32.67 -8.29 0 -24.06 33.15c-0.86,1.18 -1.23,2.79 -0.99,4.26 0.25,1.47 1.04,2.36 2.1,2.36l4.85 0c0.78,0 1.5,-0.45 2.12,-1.33l18 -25.41c1.1,-1.56 2.67,-1.78 3.6,-0.52l19.62 26.45c0.41,0.55 0.89,0.81 1.49,0.81z"/>
</g>
</g>
<g>
<path class="fil3" d="M237.38 194.47c0,0 -88.66,-2.13 -102.68,1.82 -14.02,3.95 30.17,142.34 30.17,142.34l56.73 0 15.78 -144.16z"/>
<path class="fil1" d="M127.24 197.88c7.24,-2.4 9.57,-3.13 11.2,5.29 1.49,7.64 27.6,128.13 31.64,135.46l95.17 0c0,0 22.52,12.21 22.74,19.44 0.21,7.22 -8.86,6.87 -8.86,6.87l-111.39 0c-2.5,0 -10.69,-1.6 -13.42,-13.53 -2.73,-11.93 -28.43,-129.06 -30.13,-137.6 -0.93,-4.66 -1.97,-9.46 -1.49,-12.15 0.41,-2.24 1.99,-2.66 4.54,-3.78z"/>
</g>
</g>
<g>
<g>
<path class="fil4" d="M295.1 489.41c-1.34,1.93 -2.85,9.58 -0.28,16.33 0.49,1.27 1.64,2.07 3,2.07l35.32 0c1.07,0 1.98,-0.47 2.61,-1.33 0.55,-0.77 1.05,-1.96 1.05,-3.73 0,-4.14 -4.98,-7.25 -13.23,-9.46 -8.25,-2.21 -9.61,-1.75 -13.81,-3.24 -4.19,-1.49 -14.66,-0.64 -14.66,-0.64z"/>
<path class="fil5" d="M298.9 348.87c1.91,11.64 12.14,106.75 14.63,135.03 0.23,2.54 0.36,4.44 0.43,5.75 0.07,1.37 -0.86,2.93 -2.24,3.24 -4.05,1.29 -10.82,1.31 -16.4,-0.36 -1.29,-0.39 -2.16,-1.46 -2.28,-2.79 -3.79,-42.36 -9.26,-86.89 -14.66,-129.11 -1.02,-7.96 -10.54,-12.59 -21,-16.08 -10.82,-3.62 -22.69,-5.97 -29.44,-7.25l22.28 -20.8c1.17,0.39 3.15,2.03 4.39,2.44 7.14,2.37 14.26,5.09 21.2,7.9 11.22,4.56 21.16,10.21 23.09,22.03z"/>
</g>
<g>
<path class="fil4" d="M241.17 489.41c-1.37,1.93 -2.64,9.6 0.04,16.36 0.5,1.25 1.68,2.04 3.05,2.04l36.02 0c1.08,0 2.02,-0.47 2.65,-1.33 0.57,-0.77 1.07,-1.96 1.07,-3.73 0,-4.14 -5.07,-7.25 -13.48,-9.46 -8.41,-2.21 -9.8,-1.75 -14.08,-3.24 -4.27,-1.49 -15.27,-0.64 -15.27,-0.64z"/>
<path class="fil6" d="M250.22 316.5c0,0 -1.85,12.26 -10.84,17.57 0,0 7.58,6.48 10.25,19.92 2.42,12.17 10.36,111.28 11.16,133.29 0.03,0.79 0.04,1.43 0.05,1.96 0.01,1.49 -0.95,2.76 -2.39,3.14 -4.17,1.11 -10.78,1.54 -16.34,-0.03 -1.33,-0.38 -2.24,-1.5 -2.33,-2.88 -2.72,-42.12 -6.55,-79.84 -10.77,-122.05 -0.62,-6.18 -1.44,-13.2 -10.47,-15.61 -10.42,-2.79 -23.52,-8.26 -23.52,-21.25l0 -11.62 55.2 -2.44z"/>
</g>
</g>
<g>
<path class="fil7" d="M315.09 271.84c15.01,0 35.6,5.27 35.6,14.9l-35.6 0 0 -14.9z"/>
<rect class="fil8" x="310.33" y="270.96" width="5.59" height="15.78"/>
<path class="fil9" d="M273.89 207.62c0,0 4.25,3.4 3.03,10.94 -1.22,7.54 -6.21,48.01 -6.21,48.01l41.42 3.72 0 16.45 -54.06 0 15.82 -79.12z"/>
</g>
<path class="fil10" d="M254.61 318.94l19.28 -111.32c-4.62,-4.89 -18.09,-11.62 -33.36,-13.55 -15.27,-1.92 -29.74,2.13 -39.3,6.64l-6.21 118.23c19.65,1.94 39.52,1.88 59.59,0z"/>
<path class="fil8" d="M225.16 195.21l-0.06 0.6c-1.54,16.28 23.55,19.83 28.5,2.91 0.6,-2.06 -0.55,-4.17 -2.58,-4.73 -3.25,-0.91 -6.7,-1.63 -10.26,-2.08 -4.02,-0.51 -8,-0.59 -11.85,-0.34 -1.97,0.12 -3.57,1.67 -3.75,3.64z"/>
<g>
<path class="fil11" d="M243.25 171.08l-1.87 0c-5.09,0 -9.66,4.16 -10.14,9.26l-1.47 15.62c-1.17,12.42 19.22,12.41 20.4,0l1.47 -15.62c0.48,-5.1 -3.3,-9.26 -8.39,-9.26z"/>
<g>
<path class="fil7" d="M250.11 136.74c-13.39,0 -25.04,11.9 -26,26.59 -0.96,14.68 9.12,26.58 22.52,26.58 13.4,0 25.04,-11.9 26,-26.58 0.05,-0.79 0.07,-1.57 0.06,-2.34l-0.06 -24.25 -22.52 0z"/>
<path class="fil12" d="M226.83 172.08c0,2.34 -0.14,4.89 -3.57,4.89 -3.43,0 -6.47,-5.93 -6.47,-12.99 0,-12.79 -2.53,-34.49 12.4,-38.56 0,0 2.47,-8.47 12.03,-8.47 9.56,0 19.12,6.91 30.38,6.91 11.26,0 13.42,7.21 11.9,12.88 -1.52,5.68 -8.13,12.95 -10.84,13.67 -2.71,0.73 0.85,-6.93 -5.84,-10.3 -6.69,-3.37 -22.16,-3.76 -26.56,-1.16 -4.39,2.6 -1.57,6.17 -11.88,10.83 -4.93,2.23 -5.87,4.81 -5.45,7.05 1.06,5.62 3.93,3.8 3.9,15.25z"/>
<ellipse class="fil7" cx="223.38" cy="156.01" rx="8.02" ry="7.97"/>
</g>
</g>
<g>
<path class="fil13" d="M385.04 280.93l-70.93 0 0 5.81 71.01 0 0 -5.73c0,-0.05 -0.04,-0.08 -0.08,-0.08z"/>
<path class="fil14" d="M280.93 280.93l34.98 0c1.6,0 2.9,1.31 2.9,2.91l0 2.9 -40.78 0 0 -2.9c0,-1.6 1.31,-2.91 2.9,-2.91z"/>
</g>
<g>
<path class="fil7" d="M235.55 270.61c16.26,0 38.56,5.71 38.56,16.13l-38.56 0 0 -16.13z"/>
<rect class="fil8" x="230.4" y="269.65" width="6.05" height="17.09"/>
<path class="fil9" d="M210.37 215.16l-15.94 45.53c-2.09,5.97 -0.86,6.92 4.79,7.04l32.08 0.65 0 18.36 -32.31 0c-7.54,0 -19.89,-2.03 -24.16,-8.23 -4.28,-6.21 -3.26,-14.46 -0.81,-21.59l16.91 -49.3c4.39,-12.78 24.93,-8.14 19.44,7.54z"/>
</g>
<g>
<path class="fil15" d="M188.41 291.88l0 223.45c0,3.45 3.16,4.42 4.58,4.42 2.43,0 4.42,-1.99 4.42,-4.42l0 -223.64 -9 0.19z"/>
<path class="fil15" d="M197.81 286.54l-100.95 1.21c-4.37,0.05 -7.93,3.66 -7.93,8.03l0 0c0,4.36 3.56,7.88 7.93,7.83l100.95 -1.21 0 -15.86z"/>
<path class="fil15" d="M365.96 295.12l0 205.79c0,3.48 3.2,4.42 4.59,4.42 2.43,0 4.41,-1.98 4.41,-4.42l0 -205.79 -9 0z"/>
<path class="fil15" d="M468.8 286.54l-273.78 0 0 15.86 273.78 0c4.36,0 7.93,-3.57 7.93,-7.93l0 0c0,-4.36 -3.57,-7.93 -7.93,-7.93z"/>
<path class="fil15" d="M448.76 295.12l0 216.6c0,3.44 3.14,4.42 4.58,4.42 2.43,0 4.42,-1.99 4.42,-4.42l0 -216.6 -9 0z"/>
<path class="fil15" d="M106.72 295.4l0 204.86c0,3.45 3.16,4.42 4.58,4.42 2.43,0 4.42,-1.99 4.42,-4.42l0 -205.05 -9 0.19z"/>
</g>
<g>
<path class="fil16" d="M418.94 186.74l-97.22 -5.53c-3.24,-0.19 -6.34,2.65 -6.86,5.9l-10.66 67.03c-0.52,3.24 1.7,5.97 4.94,5.9l98.3 -2.26c3.24,-0.07 6.33,-2.65 6.85,-5.9l9.6 -59.24c0.52,-3.24 -1.71,-5.72 -4.95,-5.9z"/>
<path class="fil17" d="M422.65 182.85l-97.85 -1.64c-3.25,-0.06 -6.33,2.65 -6.83,5.9l-10.32 67.03c-0.5,3.24 1.73,5.91 4.98,5.9l98 -0.43c3.24,-0.01 6.31,-2.65 6.82,-5.9l10.17 -64.96c0.51,-3.25 -1.73,-5.85 -4.97,-5.9z"/>
<path class="fil18" d="M372.07 214.75c-3.33,0 -6.22,2.7 -6.45,6.03 -0.23,3.33 2.28,6.03 5.61,6.03 3.33,0 6.22,-2.7 6.45,-6.03 0.24,-3.33 -2.28,-6.03 -5.61,-6.03z"/>
<path class="fil19" d="M359.84 282.38l6.38 0c1.1,0 2.01,-0.9 2.01,-2.01l0 -7.88c0,-0.73 -0.08,-1.34 -0.27,-2.04l-6.71 -25.56c-0.23,-0.86 -0.34,-1.65 -0.34,-2.54l0 -1.84c0,-1.88 2.08,-3.19 3.46,-3.66l15.74 45.53 0 4.36 -22.28 0 0 -2.35c0,-1.11 0.9,-2.01 2.01,-2.01z"/>
<path class="fil16" d="M364.37 236.85l15.64 0c1.21,0 2.46,0.98 2.82,2.18l13.85 45.2c0.18,0.61 0.34,2.51 -0.3,2.51l-19.14 0 -14.03 -48.35c-0.11,-0.38 -0.04,-0.75 0.2,-1.06 0.23,-0.32 0.57,-0.48 0.96,-0.48z"/>
<path class="fil17" d="M373.19 220.96c-0.38,-0.54 -0.76,-1.09 -1.15,-1.64 -0.03,-0.04 -0.04,-0.09 -0.04,-0.13 0,-0.07 0.03,-0.13 0.08,-0.17 0.05,-0.04 0.1,-0.06 0.16,-0.06 0.07,0 0.13,0.04 0.17,0.1 0.36,0.51 0.71,1.02 1.07,1.53 0.39,-0.5 0.79,-1.01 1.19,-1.51 0,0 0,0 0.01,0 0.05,-0.06 0.11,-0.09 0.18,-0.09 0.06,0 0.11,0.01 0.15,0.06 0.04,0.04 0.05,0.09 0.05,0.14 0,0.05 -0.02,0.1 -0.06,0.14 0,0 0,0 0,0 -0.43,0.54 -0.85,1.09 -1.27,1.63 0.37,0.54 0.73,1.08 1.1,1.62 0.03,0.04 0.04,0.08 0.04,0.13 -0.01,0.06 -0.03,0.11 -0.07,0.16 -0.04,0.04 -0.1,0.07 -0.15,0.07 -0.07,0 -0.13,-0.05 -0.18,-0.1 0,0 0,0 0,0 -0.34,-0.51 -0.69,-1.01 -1.04,-1.52 -0.39,0.5 -0.79,1 -1.19,1.5 -0.04,0.05 -0.1,0.08 -0.17,0.08 -0.05,0 -0.11,-0.02 -0.14,-0.06 -0.05,-0.04 -0.06,-0.1 -0.06,-0.16 0,-0.04 0.02,-0.09 0.05,-0.13 0.42,-0.53 0.84,-1.06 1.27,-1.58l0 -0.01zm-3.41 1.19c0.23,0.01 0.42,0.21 0.41,0.46 -0.01,0.25 -0.2,0.45 -0.44,0.45 -0.23,-0.01 -0.41,-0.21 -0.41,-0.46 0.01,-0.25 0.21,-0.45 0.44,-0.45zm0 0l0 0zm0.28 -3.28c0.39,0 0.76,0.12 1.01,0.44 0.24,0.31 0.32,0.69 0.3,1.09 -0.03,0.78 -0.06,1.56 -0.09,2.33 0,0.06 -0.02,0.12 -0.07,0.16 -0.04,0.05 -0.09,0.07 -0.15,0.07 -0.06,0 -0.11,-0.02 -0.16,-0.08 -0.03,-0.04 -0.05,-0.09 -0.05,-0.16 0.03,-0.76 0.06,-1.53 0.08,-2.29 0.02,-0.29 -0.04,-0.57 -0.2,-0.8 -0.18,-0.23 -0.44,-0.31 -0.71,-0.31 -0.1,0 -0.2,0 -0.29,-0.01 -0.28,0 -0.55,0.07 -0.73,0.3 -0.18,0.22 -0.26,0.5 -0.26,0.79 -0.02,0.77 -0.04,1.53 -0.06,2.3 -0.01,0.06 -0.03,0.11 -0.07,0.15 -0.04,0.05 -0.1,0.08 -0.16,0.08 -0.06,0 -0.11,-0.03 -0.15,-0.08 -0.04,-0.04 -0.06,-0.1 -0.06,-0.16 0.02,-0.77 0.04,-1.55 0.06,-2.32 0.01,-0.4 0.11,-0.78 0.37,-1.09 0.27,-0.31 0.65,-0.42 1.04,-0.41 0.12,0 0.23,0 0.35,0l0 0z"/>
</g>
</g>
<g>
<path class="fil20" d="M304.92 41.39l-54.53 0c-2.98,0 -5.39,2.4 -5.39,5.37l0 29.47c0,2.97 2.41,5.38 5.39,5.38l2.02 0c0.65,0 1.17,0.53 1.17,1.17l0 9.47c0,0.48 0.28,0.91 0.73,1.09 0.45,0.18 0.94,0.09 1.28,-0.26l11.14 -11.13c0.22,-0.22 0.5,-0.34 0.83,-0.34l37.36 0c2.98,0 5.4,-2.41 5.4,-5.38l0 -29.47c0,-2.97 -2.42,-5.37 -5.4,-5.37z"/>
<path class="fil21" d="M257.27 68.57l12.87 0c0.99,0 1.8,0.81 1.8,1.8 0,0.99 -0.81,1.8 -1.8,1.8l-12.87 0c-0.99,0 -1.79,-0.81 -1.79,-1.8 0,-0.99 0.8,-1.8 1.79,-1.8zm0 -17.74l40.77 0c0.99,0 1.8,0.8 1.8,1.8 0,0.99 -0.81,1.79 -1.8,1.79l-40.77 0c-0.99,0 -1.79,-0.8 -1.79,-1.79 0,-1 0.8,-1.8 1.79,-1.8zm0 8.75l23.71 0c1,0 1.8,0.8 1.8,1.79 0,0.99 -0.8,1.79 -1.8,1.79l-23.71 0c-0.99,0 -1.79,-0.8 -1.79,-1.79 0,-0.99 0.8,-1.79 1.79,-1.79z"/>
</g>
<g>
<path class="fil22" d="M536.66 66.53l0 69.83c0,6.02 -4.88,10.88 -10.91,10.88l-148.89 0c-6.03,0 -10.91,-4.86 -10.91,-10.88l0 -69.83c0,-6.02 4.88,-10.89 10.91,-10.89l148.89 0c6.03,0 10.91,4.87 10.91,10.89z"/>
<path class="fil23" d="M536.66 66.53l0 6.04 -170.71 0 0 -6.04c0,-6.02 4.88,-10.89 10.91,-10.89l148.89 0c6.03,0 10.92,4.87 10.92,10.89l-0.01 0z"/>
<path class="fil24" d="M396.17 64.91c0,1.27 -1.03,2.29 -2.3,2.29 -1.25,0 -2.28,-1.02 -2.28,-2.29 0,-1.26 1.03,-2.28 2.28,-2.28 1.27,0 2.3,1.02 2.3,2.28zm-18.31 0c0,1.27 -1.03,2.29 -2.29,2.29 -1.26,0 -2.28,-1.02 -2.28,-2.29 0,-1.26 1.02,-2.28 2.28,-2.28 1.26,0 2.29,1.02 2.29,2.28zm9.15 0c0,1.27 -1.02,2.29 -2.28,2.29 -1.27,0 -2.29,-1.02 -2.29,-2.29 0,-1.26 1.02,-2.28 2.29,-2.28 1.26,0 2.28,1.02 2.28,2.28z"/>
<path class="fil25" d="M403.78 82.53c15.11,0 27.39,12.28 27.39,27.38 0,15.11 -12.28,27.39 -27.39,27.39 -15.1,0 -27.38,-12.28 -27.38,-27.39 0,-15.1 12.28,-27.38 27.38,-27.38zm0 50.5c12.76,0 23.13,-10.36 23.13,-23.12 0,-12.76 -10.37,-23.12 -23.13,-23.12 -12.76,0 -23.12,10.36 -23.12,23.12 0,12.76 10.36,23.12 23.12,23.12zm-3.88 -17.36l14.83 -16.68c0.76,-0.87 2.12,-0.95 2.99,-0.17 0.88,0.78 0.97,2.11 0.19,3l-16.16 18.17c-0.41,0.46 -0.99,0.73 -1.6,0.73 -0.49,0 -0.96,-0.17 -1.32,-0.47l-10.12 -8.08c-0.91,-0.73 -1.06,-2.08 -0.33,-2.99 0.73,-0.92 2.08,-1.07 3,-0.34l8.52 6.83 0 0z"/>
<path class="fil24" d="M518.87 132.86l-73.3 0c-1.18,0 -2.14,-0.96 -2.14,-2.13 0,-1.18 0.96,-2.14 2.14,-2.14l73.3 0c1.19,0 2.14,0.96 2.14,2.14 0,1.17 -0.95,2.13 -2.14,2.13l0 0z"/>
<path class="fil24" d="M518.87 112.05l-73.3 0c-1.18,0 -2.14,-0.96 -2.14,-2.14 0,-1.17 0.96,-2.13 2.14,-2.13l73.3 0c1.19,0 2.14,0.96 2.14,2.13 0,1.18 -0.95,2.14 -2.14,2.14l0 0z"/>
<path class="fil24" d="M493.12 91.23l-47.55 0c-1.18,0 -2.14,-0.96 -2.14,-2.13 0,-1.18 0.96,-2.14 2.14,-2.14l47.55 0c1.17,0 2.13,0.96 2.13,2.14 0,1.17 -0.96,2.13 -2.13,2.13z"/>
</g>
<g>
<path class="fil26" d="M162.57 162.14l-111.17 0c-3.78,0 -6.84,-3.05 -6.84,-6.82l0 -31.54c0,-3.77 3.06,-6.83 6.84,-6.83l111.17 0c3.76,0 6.82,3.06 6.82,6.83l0 31.54c0,3.77 -3.06,6.82 -6.82,6.82z"/>
<path class="fil24" d="M151.96 132.01l-59.4 0c-1.02,0 -1.85,-0.83 -1.85,-1.86 0,-1.02 0.83,-1.86 1.85,-1.86l59.4 0c1.02,0 1.86,0.84 1.86,1.86 0,1.03 -0.84,1.86 -1.86,1.86z"/>
<path class="fil24" d="M113.29 141.41l-20.73 0c-1.02,0 -1.85,-0.83 -1.85,-1.86l0 0c0,-1.03 0.83,-1.86 1.85,-1.86l20.73 0c1.04,0 1.86,0.83 1.86,1.86l0 0c0,1.03 -0.83,1.86 -1.86,1.86z"/>
<path class="fil24" d="M151.96 141.41l-24.79 0c-1.02,0 -1.86,-0.83 -1.86,-1.86l0 0c0,-1.03 0.84,-1.86 1.86,-1.86l24.79 0c1.02,0 1.86,0.83 1.86,1.86l0 0c0,1.03 -0.84,1.86 -1.86,1.86z"/>
<path class="fil24" d="M137.08 150.8l-44.52 0c-1.02,0 -1.85,-0.83 -1.85,-1.86 0,-1.02 0.83,-1.86 1.85,-1.86l44.52 0c1.04,0 1.87,0.84 1.87,1.86 0,1.03 -0.83,1.86 -1.87,1.86z"/>
<path class="fil25" d="M68.81 122.94c9.16,0 16.61,7.45 16.61,16.61 0,9.16 -7.45,16.61 -16.61,16.61 -9.15,0 -16.61,-7.45 -16.61,-16.61 0,-9.16 7.46,-16.61 16.61,-16.61zm0 30.35c7.59,0 13.74,-6.16 13.74,-13.74 0,-7.58 -6.15,-13.74 -13.74,-13.74 -7.58,0 -13.73,6.16 -13.73,13.74 0,7.58 6.15,13.74 13.73,13.74zm-1.41 -17.99c0,-0.78 0.63,-1.42 1.41,-1.42 0.79,0 1.43,0.64 1.43,1.42l0 12.67c0,0.79 -0.64,1.42 -1.43,1.42 -0.78,0 -1.41,-0.63 -1.41,-1.42l0 -12.67zm0 -4.18c0,-0.78 0.63,-1.42 1.41,-1.42 0.79,0 1.43,0.64 1.43,1.42l0 0.87c0,0.78 -0.64,1.42 -1.43,1.42 -0.78,0 -1.41,-0.64 -1.41,-1.42l0 -0.87z"/>
</g>
</g>
</g>
</svg>